# xmcd
#
# Track frame offsets: 
#        150
#        8275
#        16348
#        23157
#        30067
#        45061
#        60041
#        72767
#        83243
#        94708
#        98420
#        101638
#        105664
#        109321
#        119421
#        133861
#        143582
#        152571
#        161379
#        173719
#        186121
#        216207
#        247108
#        258006
#
# Disc length: 3568 seconds
#
# Revision: 0
# Processed by: cddbd v1.5.2PL0 Copyright (c) Steve Scherf et al.
# Submitted via: ExactAudioCopy v0.95b3
#
DISCID=170dee18
DTITLE=The Monkees - The Monkees Complete 16 of 28  
DYEAR=1900
DGENRE=
TTITLE0=Merry Go Round
TTITLE1=Merry Go Round (alt. version)
TTITLE2=Merry Go Round (demo from acetate)
TTITLE3=Merry Go Round (demo from tape)
TTITLE4=P.O. Box 9847 (alt. mix)
TTITLE5=P.O. Box 9847 (4.1 composite)
TTITLE6=Party
TTITLE7=Rosemarie (original version)
TTITLE8=Rosemarie
TTITLE9=Seeger's Theme
TTITLE10=Seeger's Theme (alt. mix)
TTITLE11=Seeger's Theme (alt. version 1)
TTITLE12=Seeger's Theme (alt. version 2)
TTITLE13=Shake 'Em Up
TTITLE14=Tapioca Tundra (alt. mix)
TTITLE15=Tear The Top Off My Head
TTITLE16=Tear The Top Off My Head (alt. mix 1)
TTITLE17=Tear The Top Off My Head (alt. mix 2)
TTITLE18=The Girl I Left Behind Me (original version)
TTITLE19=The Girl I Left Behind Me (original version alt. mix)
TTITLE20=The Girl I Left Behind Me\\Girl Named Love (from acetate)
TTITLE21=The Girl I Left Behind Me\\Girl Named Love (from tape)
TTITLE22=Valleri (alt. mix)
TTITLE23=Zor and Zam (original version)
EXTD=
EXTT0=
EXTT1=
EXTT2=
EXTT3=
EXTT4=
EXTT5=
EXTT6=
EXTT7=
EXTT8=
EXTT9=
EXTT10=
EXTT11=
EXTT12=
EXTT13=
EXTT14=
EXTT15=
EXTT16=
EXTT17=
EXTT18=
EXTT19=
EXTT20=
EXTT21=
EXTT22=
EXTT23=
PLAYORDER=
